<svg id="Слой_1" data-name="Слой 1" xmlns="http://www.w3.org/2000/svg" viewBox="0 0 39.12 39.11"><defs><style>.cls-1{fill:#2260aa;}.cls-2{fill:#fff;}</style></defs><title>nedvizhimost_dubai_email</title><path class="cls-1" d="M353.32,324.82h0a19.55,19.55,0,0,0,19.55-19.55h0a19.56,19.56,0,0,0-19.56-19.56h0a19.56,19.56,0,0,0-19.56,19.56h0A19.55,19.55,0,0,0,353.32,324.82Z" transform="translate(-333.77 -285.71)"/><path id="mail" class="cls-2" d="M356.7,305.17a3.73,3.73,0,0,0-3.86-3.66h-.08a3.68,3.68,0,0,0-3.68,4,3.6,3.6,0,0,0,3.67,3.86,3.84,3.84,0,0,0,3.95-3.71Zm-3.93-5.7a5.92,5.92,0,0,1,4.15,1.79h0a.87.87,0,0,1,.85-.92h.12a.93.93,0,0,1,.92,1v8.15a.53.53,0,0,0,.88.47c1.31-1.34,2.88-6.92-.81-10.15a8.84,8.84,0,0,0-10.51-.82,7.93,7.93,0,0,0-2.66,9.52c1.77,4.08,6.83,5.3,9.84,4.09,1.52-.62,2.22,1.44.64,2.11-2.39,1-9,.92-12.14-4.46a9.84,9.84,0,0,1,3.58-13.34,10.85,10.85,0,0,1,13.25,1.7c3.54,3.7,3.34,10.62-.12,13.31a2.41,2.41,0,0,1-3.87-1.75v-.58a5.82,5.82,0,0,1-4.12,1.71,5.9,5.9,0,0,1,0-11.79h0" transform="translate(-333.77 -285.71)"/></svg>