<svg id="Слой_1" data-name="Слой 1" xmlns="http://www.w3.org/2000/svg" viewBox="0 0 39.12 39.12"><defs><style>.cls-1{fill:#0754ef;}.cls-2{fill:#fff;}</style></defs><title>nedvizhimost_dubai_facebook</title><path class="cls-1" d="M429.67,324.83h0a19.55,19.55,0,0,0,19.55-19.56h0a19.56,19.56,0,0,0-19.56-19.56h0a19.56,19.56,0,0,0-19.56,19.56h0A19.55,19.55,0,0,0,429.67,324.83Z" transform="translate(-410.12 -285.7)"/><path id="facebook" class="cls-2" d="M431.52,317.15V306.31h3.64l.55-4.23h-4.19v-2.7c0-1.22.34-2.05,2.1-2.05h2.23v-3.78a29.77,29.77,0,0,0-3.26-.17c-3.22,0-5.43,2-5.43,5.59v3.11h-3.65v4.23h3.65v10.84Z" transform="translate(-410.12 -285.7)"/></svg>