<svg id="Слой_1" data-name="Слой 1" xmlns="http://www.w3.org/2000/svg" viewBox="0 0 39.12 39.12"><defs><style>.cls-1{fill:#b72b75;}.cls-2{fill:#fff;}</style></defs><title>nedvizhimost_dubai_instagram</title><path class="cls-1" d="M736.7,324.83h0a19.55,19.55,0,0,0,19.55-19.56h0a19.56,19.56,0,0,0-19.56-19.56h0a19.56,19.56,0,0,0-19.56,19.56h0A19.55,19.55,0,0,0,736.7,324.83Z" transform="translate(-717.15 -285.7)"/><g id="instagram"><path class="cls-2" d="M736.71,297c2.68,0,3,0,4,.06a5.42,5.42,0,0,1,1.87.35,3,3,0,0,1,1.15.75,3.06,3.06,0,0,1,.75,1.15,5.54,5.54,0,0,1,.35,1.86c0,1.06,0,1.38,0,4.05s0,3,0,4.06a5.54,5.54,0,0,1-.35,1.86,3.06,3.06,0,0,1-.75,1.15,3,3,0,0,1-1.15.75,5.42,5.42,0,0,1-1.87.35c-1,.05-1.37.06-4,.06s-3,0-4.05-.06a5.42,5.42,0,0,1-1.87-.35,3,3,0,0,1-1.15-.75,3.06,3.06,0,0,1-.75-1.15,5.35,5.35,0,0,1-.34-1.86c0-1.06-.06-1.38-.06-4.06s0-3,.06-4.05a5.35,5.35,0,0,1,.34-1.86,3.06,3.06,0,0,1,.75-1.15,3,3,0,0,1,1.15-.75,5.42,5.42,0,0,1,1.87-.35c1.06-.05,1.37-.06,4.05-.06m0-1.81c-2.72,0-3.07,0-4.13.06a7.36,7.36,0,0,0-2.44.47,5,5,0,0,0-1.78,1.16,4.91,4.91,0,0,0-1.15,1.77,7.36,7.36,0,0,0-.47,2.44c0,1.07-.06,1.41-.06,4.13s0,3.07.06,4.14a7.36,7.36,0,0,0,.47,2.44,4.91,4.91,0,0,0,1.15,1.77,5,5,0,0,0,1.78,1.16,7.36,7.36,0,0,0,2.44.47c1.06,0,1.41.06,4.13.06s3.07,0,4.14-.06a7.35,7.35,0,0,0,2.43-.47,5,5,0,0,0,1.78-1.16,4.78,4.78,0,0,0,1.15-1.77,7.36,7.36,0,0,0,.47-2.44c.05-1.07.06-1.41.06-4.14s0-3.06-.06-4.13a7.36,7.36,0,0,0-.47-2.44,4.78,4.78,0,0,0-1.15-1.77,5,5,0,0,0-1.78-1.16,7.35,7.35,0,0,0-2.43-.47c-1.07,0-1.42-.06-4.14-.06Z" transform="translate(-717.15 -285.7)"/><path class="cls-2" d="M736.71,300.11a5.16,5.16,0,1,0,5.15,5.15A5.16,5.16,0,0,0,736.71,300.11Zm0,8.5a3.35,3.35,0,1,1,3.34-3.35A3.34,3.34,0,0,1,736.71,308.61Z" transform="translate(-717.15 -285.7)"/><circle class="cls-2" cx="24.92" cy="14.21" r="1.2"/></g></svg>