<svg id="Слой_1" data-name="Слой 1" xmlns="http://www.w3.org/2000/svg" viewBox="0 0 39.12 39.11"><defs><style>.cls-1{fill:#d18d32;}.cls-2{fill:#fff;}</style></defs><title>nedvizhimost_dubai_odnoklassniki</title><path class="cls-1" d="M684.42,324.82h0A19.55,19.55,0,0,0,704,305.27h0a19.56,19.56,0,0,0-19.56-19.56h0a19.56,19.56,0,0,0-19.56,19.56h0A19.55,19.55,0,0,0,684.42,324.82Z" transform="translate(-664.87 -285.71)"/><g id="ok"><path class="cls-2" d="M684.35,305.61a5.5,5.5,0,1,0-5.5-5.5A5.51,5.51,0,0,0,684.35,305.61Zm0-7.78a2.28,2.28,0,1,1-2.28,2.28A2.29,2.29,0,0,1,684.35,297.83Z" transform="translate(-664.87 -285.71)"/><path class="cls-2" d="M686.57,310.09a10.13,10.13,0,0,0,3.2-1.32,1.61,1.61,0,0,0-1.72-2.73,7,7,0,0,1-7.4,0,1.61,1.61,0,0,0-1.72,2.73,10,10,0,0,0,3.19,1.32l-3.07,3.08a1.61,1.61,0,0,0,1.14,2.75,1.64,1.64,0,0,0,1.14-.47l3-3,3,3a1.61,1.61,0,0,0,2.28-2.28Z" transform="translate(-664.87 -285.71)"/></g></svg>