<svg id="Слой_1" data-name="Слой 1" xmlns="http://www.w3.org/2000/svg" viewBox="0 0 39.12 39.11"><defs><style>.cls-1{fill:#2275ba;}.cls-2{fill:#fff;}</style></defs><title>nedvizhimost_dubai_skype</title><path class="cls-1" d="M293.43,285.71h0a19.56,19.56,0,0,0-19.56,19.56h0a19.55,19.55,0,0,0,19.55,19.55h0A19.55,19.55,0,0,0,313,305.27h0A19.56,19.56,0,0,0,293.43,285.71Z" transform="translate(-273.87 -285.71)"/><path id="skype" class="cls-2" d="M302.82,306.92a9,9,0,0,0,.15-1.65,9.5,9.5,0,0,0-9.5-9.5,10,10,0,0,0-1.66.14,5.66,5.66,0,0,0-7.71,7.79,9,9,0,0,0-.13,1.57,9.49,9.49,0,0,0,11.11,9.36,5.59,5.59,0,0,0,2.81.75,5.66,5.66,0,0,0,4.93-8.46Zm-13.18.33c.95-.05,1.26,1.08,2,1.56s3.23,1.09,3.95-.55c.53-1.41-1-1.63-2.57-2-2.36-.51-4.33-1.12-4.31-3.52s1.82-3.28,3.59-3.44a6.43,6.43,0,0,1,4.8,1.19c1.34,1.15.62,2.39-.34,2.42-1.36,0-1.34-1.76-3.58-1.74-1.93,0-2.81,1.84-.79,2.49,2.83.75,5.1.66,5.83,3,.57,2.24-.79,4.32-4.09,4.59-2.63.14-4-.6-4.91-1.5C288.1,308.55,288.61,307.3,289.64,307.25Z" transform="translate(-273.87 -285.71)"/></svg>