<svg id="Слой_1" data-name="Слой 1" xmlns="http://www.w3.org/2000/svg" viewBox="0 0 39.12 39.11"><defs><style>.cls-1{fill:#2a97c6;}.cls-2{fill:#fff;}</style></defs><title>nedvizhimost_dubai_telegram</title><path class="cls-1" d="M238.43,285.71h0a19.56,19.56,0,0,0-19.56,19.56h0a19.55,19.55,0,0,0,19.55,19.55h0A19.55,19.55,0,0,0,258,305.27h0A19.56,19.56,0,0,0,238.43,285.71Z" transform="translate(-218.87 -285.71)"/><path id="telegram" class="cls-2" d="M246.61,296.64l-18.58,7c-1,.29-1,1.29-.23,1.53l4.65,1.46,1.79,5.46c.21.6.39.82.76.83s.54-.14.94-.5,1.19-1.14,2.33-2.25l4.84,3.58c.89.49,1.54.24,1.76-.83l3-15C248.23,296.64,247.46,296.25,246.61,296.64Zm-13.42,9.69,10.58-6.64c.52-.35.68,0,.45.31l-8.79,7.9-.45,4Z" transform="translate(-218.87 -285.71)"/></svg>