<svg id="Слой_1" data-name="Слой 1" xmlns="http://www.w3.org/2000/svg" viewBox="0 0 39.12 39.12"><defs><style>.cls-1{fill:#0e7dd8;}.cls-2{fill:#fff;}</style></defs><title>nedvizhimost_dubai_twitter</title><path class="cls-1" d="M557.21,324.83h0a19.56,19.56,0,0,0,19.56-19.56h0a19.57,19.57,0,0,0-19.57-19.56h0a19.56,19.56,0,0,0-19.56,19.56h0A19.56,19.56,0,0,0,557.21,324.83Z" transform="translate(-537.65 -285.7)"/><path id="twitter" class="cls-2" d="M568.64,298.59a9,9,0,0,1-2.53.7,4.44,4.44,0,0,0,1.94-2.44,9,9,0,0,1-2.8,1.07,4.41,4.41,0,0,0-7.64,3,4.15,4.15,0,0,0,.12,1,12.52,12.52,0,0,1-9.1-4.61,4.4,4.4,0,0,0,1.37,5.89,4.33,4.33,0,0,1-2-.55v.06a4.4,4.4,0,0,0,3.54,4.32,4.06,4.06,0,0,1-1.16.16,4.6,4.6,0,0,1-.84-.08,4.45,4.45,0,0,0,4.13,3.07,8.88,8.88,0,0,1-5.48,1.88,9.28,9.28,0,0,1-1.06-.06,12.55,12.55,0,0,0,19.33-10.57c0-.19,0-.38,0-.57A8.88,8.88,0,0,0,568.64,298.59Z" transform="translate(-537.65 -285.7)"/></svg>