<svg id="Слой_1" data-name="Слой 1" xmlns="http://www.w3.org/2000/svg" viewBox="0 0 39.12 39.11"><defs><style>.cls-1{fill:#5f32a0;}.cls-2{fill:#fff;}</style></defs><title>nedvizhimost_dubai_viber</title><path class="cls-1" d="M128.27,285.71h0a19.56,19.56,0,0,0-19.56,19.56h0a19.55,19.55,0,0,0,19.56,19.55h0a19.55,19.55,0,0,0,19.56-19.55h0A19.57,19.57,0,0,0,128.27,285.71Z" transform="translate(-108.71 -285.71)"/><path id="viber" class="cls-2" d="M135.3,296.91a6.32,6.32,0,0,0-2.59-1.29,18.76,18.76,0,0,0-7.27-.45,9.84,9.84,0,0,0-3.54,1.12,5.15,5.15,0,0,0-2.59,3.23,14.62,14.62,0,0,0-.47,3.16,15.06,15.06,0,0,0,.38,4.68,5.24,5.24,0,0,0,3.22,3.79c.19.07.37.18.56.25a.36.36,0,0,1,.22.38c0,1.23,0,2.46,0,3.75.45-.44.77-.77,1-1,.68-.77,1.33-1.41,2-2.15.36-.37.21-.36.77-.35s1.7,0,2.35,0a17.87,17.87,0,0,0,3.71-.62,4.84,4.84,0,0,0,3.39-2.84,9.35,9.35,0,0,0,.43-1.26,16.89,16.89,0,0,0,0-7.42A5,5,0,0,0,135.3,296.91Zm-7.63,1.49a.3.3,0,0,1,.37-.31,5.34,5.34,0,0,1,4.45,2.14,5.66,5.66,0,0,1,1,3.14c0,.16,0,.32,0,.49s-.09.31-.29.32-.31-.11-.32-.32a7.5,7.5,0,0,0-.52-2.34,4.38,4.38,0,0,0-3.2-2.61,6.9,6.9,0,0,0-1.19-.21C127.82,298.68,127.66,298.64,127.67,298.4Zm1.92,2a5.38,5.38,0,0,0-1.18-.3c-.2,0-.34-.14-.31-.37a.32.32,0,0,1,.39-.28,3.75,3.75,0,0,1,3.09,1.76,3.59,3.59,0,0,1,.5,1.88c0,.4-.09.51-.32.5s-.29-.29-.31-.49a7.67,7.67,0,0,0-.19-.93A2.5,2.5,0,0,0,129.59,300.43Zm1.13,2.24a1.7,1.7,0,0,1,0,.27.28.28,0,0,1-.29.24.29.29,0,0,1-.29-.24,2.65,2.65,0,0,1-.06-.3,1.23,1.23,0,0,0-.94-1l-.2,0c-.17-.05-.38-.05-.39-.3s.15-.33.43-.34a1.69,1.69,0,0,1,.66.16A1.82,1.82,0,0,1,130.72,302.67Zm2.8,5.66a2.83,2.83,0,0,1-1.88,1.64,1.36,1.36,0,0,1-.93-.12,15.35,15.35,0,0,1-8.6-8.64,2.12,2.12,0,0,1,1.76-3,1,1,0,0,1,.72.27,7.63,7.63,0,0,1,1.71,2.32A.85.85,0,0,1,126,302a1.49,1.49,0,0,1-.2.15,1,1,0,0,0-.41,1.43,5.2,5.2,0,0,0,2.06,2.43,4.52,4.52,0,0,0,1.12.56.81.81,0,0,0,.91-.31.86.86,0,0,0,.07-.1,1.19,1.19,0,0,1,1.83-.38,15.33,15.33,0,0,1,1.84,1.36A.94.94,0,0,1,133.52,308.33Z" transform="translate(-108.71 -285.71)"/></svg>