<svg id="Слой_1" data-name="Слой 1" xmlns="http://www.w3.org/2000/svg" viewBox="0 0 39.12 39.12"><defs><style>.cls-1{fill:#2153a5;}.cls-2{fill:#fff;fill-rule:evenodd;}</style></defs><title>nedvizhimost_dubai_vkontakte</title><path class="cls-1" d="M492.08,324.83h0a19.55,19.55,0,0,0,19.55-19.56h0a19.56,19.56,0,0,0-19.56-19.56h0a19.56,19.56,0,0,0-19.56,19.56h0A19.55,19.55,0,0,0,492.08,324.83Z" transform="translate(-472.53 -285.7)"/><path id="vk_alt" class="cls-2" d="M491.36,312.28h1.49a1.27,1.27,0,0,0,.67-.29,1.12,1.12,0,0,0,.21-.65s0-2,.89-2.29,2.08,1.93,3.32,2.78a2.36,2.36,0,0,0,1.65.5l3.31-.05s1.73-.1.91-1.47a11.19,11.19,0,0,0-2.46-2.85c-2.08-1.93-1.8-1.61.7-4.95,1.53-2,2.13-3.27,1.94-3.8s-1.3-.37-1.3-.37l-3.73,0a.85.85,0,0,0-.48.08,1.05,1.05,0,0,0-.33.4,21,21,0,0,1-1.38,2.91c-1.66,2.82-2.32,3-2.59,2.8-.64-.41-.48-1.64-.48-2.52,0-2.73.42-3.87-.8-4.17a6.85,6.85,0,0,0-1.75-.17,8.13,8.13,0,0,0-3.09.32c-.43.21-.75.67-.55.7a1.69,1.69,0,0,1,1.1.55,3.64,3.64,0,0,1,.37,1.69s.22,3.21-.52,3.61c-.5.28-1.19-.28-2.67-2.84a23.32,23.32,0,0,1-1.33-2.76,1.13,1.13,0,0,0-.31-.42,1.65,1.65,0,0,0-.57-.23l-3.55,0s-.53,0-.72.24,0,.63,0,.63,2.78,6.5,5.92,9.77a8.49,8.49,0,0,0,6.15,2.8Z" transform="translate(-472.53 -285.7)"/></svg>