<svg id="Слой_1" data-name="Слой 1" xmlns="http://www.w3.org/2000/svg" viewBox="0 0 39.12 39.11"><defs><style>.cls-1{fill:#57aa2b;}.cls-2{fill:#fff;fill-rule:evenodd;}</style></defs><title>nedvizhimost_dubai_whatsapp</title><path class="cls-1" d="M183.28,285.71h0a19.56,19.56,0,0,0-19.56,19.56h0a19.55,19.55,0,0,0,19.55,19.55h0a19.55,19.55,0,0,0,19.55-19.55h0A19.56,19.56,0,0,0,183.28,285.71Z" transform="translate(-163.72 -285.71)"/><g id="whatsapp"><path class="cls-2" d="M183.46,295.25A9.75,9.75,0,0,0,175.1,310l-1.76,5.24,5.4-1.73a9.76,9.76,0,1,0,4.72-18.3Zm0,17.88a8.06,8.06,0,0,1-4.47-1.35l-3.12,1,1-3a8.12,8.12,0,1,1,6.58,3.36Zm4.57-5.91c-.24-.13-1.45-.78-1.67-.87s-.39-.14-.57.1a12,12,0,0,1-.82.95c-.15.16-.3.18-.54,0a6.72,6.72,0,0,1-2-1.31,8,8,0,0,1-1.32-1.77c-.14-.26,0-.39.13-.51l.39-.42a1.59,1.59,0,0,0,.26-.41.44.44,0,0,0,0-.43c-.06-.13-.51-1.37-.7-1.88s-.4-.43-.54-.44-.31,0-.48,0a1,1,0,0,0-.68.29,2.84,2.84,0,0,0-.95,2,5,5,0,0,0,.92,2.62,10.29,10.29,0,0,0,4.12,3.92c2.49,1.09,2.5.76,3,.73a2.52,2.52,0,0,0,1.73-1.12,2.16,2.16,0,0,0,.19-1.18C188.44,307.43,188.27,307.36,188,307.22Z" transform="translate(-163.72 -285.71)"/></g></svg>