<svg id="Слой_1" data-name="Слой 1" xmlns="http://www.w3.org/2000/svg" viewBox="0 0 39.12 39.12"><defs><style>.cls-1{fill:#9c3619;}.cls-2,.cls-3{fill:#fff;}.cls-3{fill-rule:evenodd;}</style></defs><title>nedvizhimost_dubai_youtube</title><path class="cls-1" d="M620.81,324.83h0a19.55,19.55,0,0,0,19.55-19.56h0a19.56,19.56,0,0,0-19.56-19.56h0a19.56,19.56,0,0,0-19.56,19.56h0A19.55,19.55,0,0,0,620.81,324.83Z" transform="translate(-601.26 -285.7)"/><g id="youtube"><path class="cls-2" d="M626.38,308.61c-.35,0-.53.27-.53.81V310h1.07v-.55Q626.92,308.61,626.38,308.61Z" transform="translate(-601.26 -285.7)"/><path class="cls-2" d="M629,305.62a2.23,2.23,0,0,0-1.9-1.74,91.15,91.15,0,0,0-13.22,0,2.24,2.24,0,0,0-1.91,1.74,28.2,28.2,0,0,0,0,8.34,2.21,2.21,0,0,0,1.9,1.73,87.51,87.51,0,0,0,13.22,0A2.22,2.22,0,0,0,629,314a28.2,28.2,0,0,0,0-8.34Zm-12.31,1.2h-1.27v6.79h-1.19v-6.79H613v-1.11h3.72Zm3.23,6.79h-1.07V313a1.72,1.72,0,0,1-1.22.73.66.66,0,0,1-.69-.44,3,3,0,0,1-.09-.88v-4.65h1.06v4.33a3.38,3.38,0,0,0,0,.42c0,.16.11.25.25.25s.44-.17.68-.5v-4.5h1.07Zm4.05-1.77a4.8,4.8,0,0,1-.11,1.19.85.85,0,0,1-.85.66,1.44,1.44,0,0,1-1.1-.65v.57h-1.07v-7.9h1.07v2.58a1.42,1.42,0,0,1,1.1-.64.84.84,0,0,1,.85.66,4.64,4.64,0,0,1,.11,1.19Zm4-1h-2.13v1c0,.55.18.82.54.82a.45.45,0,0,0,.48-.43c0-.06,0-.29,0-.72H628v.15c0,.35,0,.58,0,.69a1.56,1.56,0,0,1-.25.64,1.46,1.46,0,0,1-1.29.64,1.51,1.51,0,0,1-1.29-.61,2.22,2.22,0,0,1-.34-1.38v-2.06a2.28,2.28,0,0,1,.33-1.39,1.52,1.52,0,0,1,1.27-.6,1.48,1.48,0,0,1,1.26.6,2.28,2.28,0,0,1,.33,1.39Z" transform="translate(-601.26 -285.7)"/><path class="cls-2" d="M622.43,308.61a.73.73,0,0,0-.53.26v3.59a.76.76,0,0,0,.53.26c.3,0,.46-.26.46-.8v-2.51C622.89,308.88,622.73,308.61,622.43,308.61Z" transform="translate(-601.26 -285.7)"/><path class="cls-3" d="M618.63,294.59h-1.21l-.82,3.13-.84-3.13H614.5l.76,2.22a17.79,17.79,0,0,1,.73,2.53v3.23h1.2v-3.23Zm3.19,6.05v-2.08a2.39,2.39,0,0,0-.33-1.4,1.61,1.61,0,0,0-2.52,0,2.32,2.32,0,0,0-.33,1.4v2.08A2.3,2.3,0,0,0,619,302a1.61,1.61,0,0,0,2.52,0A2.37,2.37,0,0,0,621.82,300.64Zm-1.08.21c0,.55-.16.82-.51.82s-.52-.27-.52-.82v-2.5c0-.55.17-.83.52-.83s.51.28.51.83Zm5.06,1.72v-5.95h-1.07v4.55c-.24.34-.47.5-.68.5s-.23-.08-.26-.25a3.27,3.27,0,0,1,0-.42v-4.38h-1.07v4.71a3,3,0,0,0,.09.88.67.67,0,0,0,.7.44,1.74,1.74,0,0,0,1.23-.73v.65Z" transform="translate(-601.26 -285.7)"/></g></svg>