<svg fill="#fff" xmlns="http://www.w3.org/2000/svg" xmlns:xlink="http://www.w3.org/1999/xlink" viewBox="0 0 570 570">
    <path d="M565 153.76C565 180.48 532.69 193.87 513.79 174.97C511.48 172.66 499.93 161.12 479.16 140.34C398.72 220.77 354.04 265.46 345.1 274.39C339.25 280.25 329.75 280.25 323.89 274.39C321.06 271.57 298.43 248.94 295.61 246.11C289.75 240.25 289.75 230.76 295.61 224.9C304.54 215.96 349.23 171.27 429.66 90.84C408.88 70.06 397.34 58.52 395.03 56.21C376.13 37.31 389.52 5 416.24 5C428.12 5 523.12 5 535 5C551.57 5 565 18.43 565 35C565 58.75 565 141.88 565 153.76ZM90.84 429.66C70.06 408.88 58.52 397.34 56.21 395.03C37.31 376.13 5 389.52 5 416.24C5 428.12 5 523.12 5 535C5 551.57 18.43 565 35 565C46.88 565 141.88 565 153.76 565C180.48 565 193.87 532.69 174.97 513.79C172.66 511.48 161.12 499.93 140.34 479.16C220.77 398.72 265.46 354.04 274.39 345.1C280.25 339.25 280.25 329.75 274.39 323.89C271.57 321.06 248.94 298.43 246.11 295.6C240.25 289.75 230.75 289.75 224.9 295.61C207.02 313.48 162.34 358.16 90.84 429.66Z"/>
</svg>