<svg width="16" height="16" xmlns="http://www.w3.org/2000/svg" icon="IFavHeard" color="#1771e6" class="c0c5"
     data-v-469cfe6c="">
    <g fill="none" fill-rule="evenodd" data-v-469cfe6c="">
        <path d="M0 0h16v16H0z" data-v-469cfe6c=""></path>
        <path d="M14 5.35c0-1.736-.851-2.85-2.303-2.85C10.237 2.5 9 3.595 9 5H7c0-1.405-1.237-2.5-2.697-2.5C2.85 2.5 2 3.614 2 5.35c0 1.908 1.586 4.102 6 7.495 4.414-3.393 6-5.588 6-7.495zM11.697.5C14.39.5 16 2.609 16 5.35c0 2.791-2.071 5.553-7.4 9.55l-.6.45-.6-.45C2.071 10.904 0 8.142 0 5.35 0 2.61 1.611.5 4.303.5 5.77.5 7.126 1.159 8 2.219A4.799 4.799 0 0111.697.5z"
              fill="currentColor" fill-rule="nonzero" data-v-469cfe6c=""></path>
    </g>
</svg>